<?xml version="1.0" encoding="UTF-8" standalone="no"?><!-- Generator: Gravit.io --><svg xmlns="http://www.w3.org/2000/svg" xmlns:xlink="http://www.w3.org/1999/xlink" style="isolation:isolate" viewBox="0 0 400 100" width="400pt" height="100pt"><defs><clipPath id="_clipPath_rJ47BafTRmVagTRANdCXpp9Qa9UeoSWk"><rect width="400" height="100"/></clipPath></defs><g clip-path="url(#_clipPath_rJ47BafTRmVagTRANdCXpp9Qa9UeoSWk)"><path d=" M 251.52 45.79 L 249.69 40.79 C 250.04 40.65 250.4 40.52 250.76 40.4 C 251.73 40.09 252.7 39.8 253.69 39.56 C 254.66 39.31 255.64 39.13 256.63 39.01 C 257.62 38.89 258.62 38.83 259.63 38.83 C 260.48 38.83 261.34 38.9 262.18 39.04 C 262.83 39.15 263.47 39.33 264.08 39.58 C 264.6 39.79 265.09 40.05 265.56 40.36 C 265.99 40.66 266.39 41 266.75 41.39 C 267.12 41.79 267.45 42.22 267.73 42.69 C 268.03 43.18 268.28 43.69 268.47 44.22 C 268.7 44.82 268.86 45.44 268.96 46.07 C 269.09 46.84 269.15 47.62 269.15 48.4 L 269.15 63.11 L 266.36 63.11 L 264.93 61.51 C 264.74 61.3 264.48 61.18 264.21 61.17 C 263.94 61.17 263.67 61.27 263.47 61.47 C 263.15 61.79 262.8 62.07 262.41 62.3 C 261.9 62.61 261.36 62.86 260.81 63.06 C 260.24 63.27 259.66 63.42 259.06 63.52 C 258.42 63.63 257.77 63.69 257.11 63.69 C 256.32 63.69 255.54 63.63 254.76 63.51 C 254.18 63.42 253.61 63.27 253.06 63.07 C 252.58 62.9 252.12 62.68 251.69 62.41 C 251.31 62.17 250.97 61.89 250.66 61.58 C 250.33 61.24 250.04 60.88 249.79 60.49 C 249.53 60.1 249.32 59.68 249.15 59.25 C 248.97 58.77 248.83 58.28 248.74 57.78 C 248.64 57.17 248.58 56.56 248.58 55.94 C 248.58 55.3 248.65 54.65 248.78 54.02 C 248.88 53.55 249.03 53.09 249.25 52.65 C 249.44 52.27 249.67 51.91 249.95 51.59 C 250.24 51.26 250.57 50.97 250.93 50.72 C 251.31 50.46 251.71 50.23 252.13 50.03 C 252.6 49.81 253.08 49.63 253.58 49.49 C 254.16 49.32 254.74 49.2 255.34 49.12 C 256.06 49.03 256.8 48.98 257.53 48.98 L 260.57 48.98 C 260.87 48.98 261.15 48.85 261.34 48.62 C 261.53 48.4 261.61 48.1 261.55 47.81 C 261.46 47.32 261.28 46.85 261.02 46.43 C 260.77 46.02 260.44 45.66 260.05 45.39 C 259.67 45.12 259.24 44.92 258.8 44.79 C 258.3 44.65 257.79 44.58 257.27 44.58 C 256.79 44.58 256.31 44.61 255.83 44.68 C 255.19 44.77 254.56 44.89 253.94 45.05 C 253.32 45.2 252.71 45.38 252.11 45.58 C 251.91 45.65 251.72 45.71 251.52 45.79 Z  M 254.54 55.58 C 254.54 55.93 254.62 56.27 254.78 56.59 C 254.94 56.9 255.17 57.18 255.44 57.4 C 255.7 57.61 255.99 57.77 256.3 57.88 C 256.61 57.99 256.94 58.04 257.27 58.04 C 257.62 58.04 257.96 58 258.3 57.93 C 258.66 57.85 259.01 57.74 259.35 57.59 C 259.67 57.45 259.98 57.29 260.28 57.1 C 260.62 56.89 260.94 56.66 261.25 56.4 C 261.49 56.21 261.62 55.93 261.62 55.63 L 261.62 52.74 L 257.69 52.74 C 257.28 52.74 256.88 52.81 256.49 52.93 C 256.13 53.05 255.8 53.23 255.51 53.47 C 255.2 53.72 254.96 54.04 254.79 54.4 C 254.63 54.77 254.54 55.17 254.54 55.58 Z " fill-rule="evenodd" fill="rgb(255,255,255)"/><path d=" M 333.24 51.44 C 333.24 50.4 333.34 49.37 333.52 48.34 C 333.68 47.51 333.92 46.7 334.24 45.91 C 334.54 45.21 334.91 44.53 335.35 43.9 C 335.8 43.27 336.3 42.7 336.87 42.18 C 337.47 41.63 338.11 41.15 338.79 40.72 C 339.45 40.32 340.15 39.97 340.87 39.7 C 341.62 39.41 342.4 39.2 343.19 39.06 C 344.09 38.91 345 38.83 345.91 38.83 C 346.89 38.83 347.87 38.92 348.84 39.11 C 349.59 39.26 350.33 39.5 351.03 39.82 C 351.65 40.1 352.24 40.47 352.78 40.89 C 353.32 41.32 353.8 41.82 354.23 42.37 C 354.69 42.96 355.09 43.59 355.45 44.25 C 355.8 44.9 356.09 45.57 356.32 46.27 C 356.56 46.99 356.74 47.73 356.86 48.49 C 356.99 49.33 357.06 50.17 357.06 51.02 L 357.06 53.32 L 342.61 53.32 C 342.27 53.32 341.96 53.49 341.78 53.77 C 341.59 54.05 341.56 54.4 341.69 54.71 C 341.94 55.29 342.28 55.81 342.7 56.27 C 343.09 56.7 343.56 57.06 344.08 57.31 C 344.58 57.55 345.1 57.73 345.64 57.84 C 346.28 57.98 346.93 58.04 347.58 58.04 C 348.17 58.04 348.76 58.01 349.34 57.96 C 349.96 57.9 350.58 57.82 351.19 57.71 C 351.82 57.6 352.43 57.44 353.04 57.25 C 353.26 57.18 353.48 57.1 353.7 57.01 L 355.67 61.75 C 355.2 62.03 354.71 62.27 354.21 62.47 C 353.27 62.83 352.3 63.08 351.31 63.22 C 350.25 63.38 349.18 63.51 348.11 63.61 C 347.62 63.66 347.13 63.69 346.64 63.69 C 345.62 63.69 344.61 63.61 343.6 63.46 C 342.74 63.34 341.89 63.14 341.07 62.87 C 340.31 62.63 339.58 62.32 338.88 61.96 C 338.21 61.6 337.57 61.19 336.96 60.73 C 336.39 60.28 335.87 59.76 335.43 59.19 C 334.96 58.58 334.57 57.92 334.27 57.21 C 333.94 56.44 333.69 55.62 333.54 54.79 C 333.34 53.68 333.24 52.56 333.24 51.44 Z  M 342.35 49.56 L 348.95 49.56 C 349.22 49.56 349.49 49.45 349.67 49.24 C 349.86 49.04 349.96 48.77 349.94 48.5 C 349.92 48.12 349.84 47.75 349.69 47.39 C 349.51 46.92 349.27 46.47 349 46.05 C 348.83 45.79 348.63 45.56 348.4 45.36 C 348.16 45.16 347.9 44.99 347.63 44.86 C 347.34 44.73 347.04 44.63 346.73 44.57 C 346.37 44.51 346.01 44.47 345.65 44.47 C 345.11 44.47 344.58 44.57 344.07 44.76 C 343.6 44.94 343.18 45.22 342.82 45.58 C 342.48 45.91 342.2 46.3 341.98 46.72 C 341.72 47.23 341.52 47.76 341.38 48.32 C 341.3 48.62 341.37 48.93 341.56 49.18 C 341.75 49.42 342.04 49.56 342.35 49.56 Z " fill-rule="evenodd" fill="rgb(255,255,255)"/><path d=" M 225.69 74.11 L 218.17 74.52 L 218.17 39.77 L 221.43 39.77 L 222.75 41.56 C 222.91 41.78 223.15 41.92 223.42 41.96 C 223.69 42 223.96 41.92 224.17 41.76 C 224.77 41.28 225.41 40.86 226.07 40.48 C 226.7 40.13 227.34 39.83 228.01 39.58 C 228.67 39.33 229.35 39.14 230.05 39.02 C 230.77 38.89 231.51 38.83 232.24 38.83 C 233.25 38.83 234.25 38.92 235.24 39.11 C 236 39.25 236.75 39.48 237.46 39.8 C 238.08 40.07 238.66 40.42 239.2 40.83 C 239.73 41.24 240.21 41.71 240.63 42.22 C 241.07 42.78 241.47 43.37 241.81 43.99 C 242.15 44.62 242.45 45.29 242.68 45.98 C 242.93 46.72 243.12 47.49 243.23 48.27 C 243.37 49.18 243.44 50.1 243.44 51.02 C 243.44 51.95 243.38 52.87 243.24 53.79 C 243.12 54.59 242.94 55.38 242.69 56.15 C 242.46 56.87 242.17 57.56 241.82 58.23 C 241.48 58.89 241.08 59.51 240.64 60.1 C 240.21 60.66 239.72 61.16 239.17 61.59 C 238.58 62.04 237.94 62.41 237.27 62.7 C 236.52 63.02 235.74 63.26 234.94 63.4 C 233.88 63.59 232.8 63.69 231.72 63.69 C 231.35 63.69 230.98 63.66 230.61 63.61 C 230.2 63.56 229.8 63.48 229.41 63.38 C 229 63.27 228.59 63.15 228.2 63.01 C 227.83 62.88 227.46 62.73 227.11 62.57 C 226.8 62.43 226.44 62.46 226.15 62.64 C 225.87 62.82 225.69 63.14 225.69 63.48 L 225.69 74.11 Z  M 235.6 51.23 C 235.6 50.4 235.48 49.58 235.23 48.79 C 235 48.04 234.64 47.33 234.18 46.69 C 233.94 46.36 233.66 46.05 233.34 45.78 C 233.04 45.52 232.71 45.3 232.36 45.12 C 231.99 44.94 231.6 44.81 231.2 44.72 C 230.75 44.62 230.29 44.58 229.84 44.58 C 229.46 44.58 229.08 44.6 228.71 44.66 C 228.38 44.71 228.05 44.78 227.74 44.89 C 227.45 44.98 227.17 45.09 226.89 45.21 C 226.66 45.31 226.44 45.42 226.22 45.54 C 225.89 45.71 225.69 46.05 225.69 46.41 L 225.69 55.37 C 225.69 55.64 225.81 55.91 226.01 56.1 C 226.3 56.37 226.62 56.61 226.96 56.82 C 227.34 57.05 227.74 57.25 228.15 57.42 C 228.57 57.59 229 57.72 229.44 57.81 C 229.83 57.9 230.22 57.94 230.62 57.94 C 231.06 57.94 231.49 57.88 231.91 57.77 C 232.29 57.67 232.66 57.51 233 57.3 C 233.33 57.09 233.63 56.84 233.89 56.54 C 234.16 56.21 234.4 55.85 234.59 55.46 C 234.92 54.77 235.17 54.04 235.35 53.3 C 235.52 52.62 235.6 51.93 235.6 51.23 Z " fill-rule="evenodd" fill="rgb(255,255,255)"/><path d=" M 105.26 63.11 L 97.11 63.11 L 91.746 49.125 L 84.53 30.31 L 91.82 29.58 L 101.31 55.72 L 110.53 29.51 L 117.86 29.51 L 105.26 63.11 Z " fill="rgb(255,255,255)"/><path d=" M 115.4 52.28 C 115.4 51.26 115.49 50.23 115.69 49.23 C 115.85 48.4 116.1 47.6 116.44 46.83 C 116.76 46.13 117.15 45.46 117.62 44.85 C 118.1 44.21 118.65 43.64 119.25 43.13 C 119.89 42.59 120.57 42.12 121.29 41.7 C 121.99 41.3 122.73 40.96 123.5 40.69 C 124.29 40.41 125.12 40.19 125.95 40.06 C 126.89 39.9 127.84 39.83 128.79 39.83 C 129.82 39.83 130.85 39.91 131.87 40.07 C 132.73 40.2 133.58 40.42 134.4 40.71 C 135.15 40.97 135.88 41.3 136.57 41.7 C 137.25 42.09 137.89 42.54 138.49 43.04 C 139.05 43.53 139.56 44.07 140 44.67 C 140.45 45.29 140.83 45.96 141.13 46.66 C 141.48 47.47 141.73 48.31 141.89 49.18 C 142.09 50.29 142.19 51.42 142.19 52.54 C 142.19 53.57 142.09 54.6 141.89 55.61 C 141.73 56.42 141.48 57.21 141.14 57.96 C 140.82 58.65 140.43 59.29 139.96 59.88 C 139.48 60.49 138.93 61.04 138.33 61.53 C 137.69 62.03 137.02 62.48 136.31 62.87 C 135.59 63.26 134.85 63.58 134.08 63.84 C 133.25 64.12 132.41 64.33 131.55 64.46 C 130.57 64.61 129.58 64.69 128.58 64.69 C 127.58 64.69 126.58 64.61 125.59 64.46 C 124.74 64.33 123.91 64.12 123.1 63.85 C 122.36 63.59 121.64 63.28 120.96 62.9 C 120.29 62.53 119.65 62.1 119.06 61.61 C 118.5 61.15 118 60.63 117.56 60.05 C 117.11 59.44 116.73 58.78 116.43 58.09 C 116.1 57.3 115.85 56.47 115.7 55.63 C 115.5 54.52 115.4 53.4 115.4 52.28 Z  M 123.24 52.309 C 123.24 53.368 123.383 54.427 123.669 55.444 C 123.856 56.131 124.185 56.775 124.6 57.334 C 124.8 57.606 125.03 57.849 125.273 58.049 C 125.502 58.25 125.76 58.407 126.017 58.536 C 126.318 58.679 126.619 58.78 126.934 58.851 C 127.334 58.937 127.764 58.98 128.179 58.98 C 128.652 58.98 129.124 58.937 129.596 58.851 C 129.94 58.78 130.269 58.679 130.599 58.551 C 130.885 58.436 131.143 58.279 131.4 58.107 C 131.629 57.935 131.858 57.734 132.059 57.505 C 132.259 57.276 132.445 57.019 132.589 56.747 C 132.775 56.403 132.918 56.031 133.032 55.659 C 133.161 55.258 133.247 54.843 133.304 54.413 C 133.376 53.84 133.419 53.268 133.419 52.681 C 133.419 51.621 133.276 50.562 133.004 49.531 C 132.789 48.758 132.46 48.042 132.016 47.384 C 131.815 47.083 131.572 46.797 131.3 46.554 C 131.085 46.353 130.828 46.181 130.556 46.038 C 130.284 45.881 129.983 45.78 129.668 45.709 C 129.281 45.623 128.881 45.58 128.48 45.58 C 128.022 45.58 127.563 45.623 127.12 45.709 C 126.776 45.78 126.447 45.881 126.132 46.024 C 125.86 46.153 125.588 46.324 125.344 46.511 C 125.087 46.711 124.858 46.954 124.657 47.212 C 124.213 47.756 123.884 48.386 123.698 49.059 C 123.397 50.118 123.24 51.221 123.24 52.309 Z " fill-rule="evenodd" fill="rgb(255,255,255)"/><path d=" M 155.43 63.11 L 147.9 63.11 L 147.9 28.66 L 155.43 28.21 L 155.43 63.11 Z " fill="rgb(255,255,255)"/><path d=" M 174.14 53.31 L 171.24 55.44 L 171.24 63.11 L 163.72 63.11 L 163.72 28.66 L 171.24 28.21 L 171.24 48.15 L 181.61 39.38 L 185.97 44.38 L 179.08 49.57 L 187.46 63.11 L 179.59 63.11 L 174.14 53.31 Z " fill="rgb(255,255,255)"/><path d=" M 200.51 46.47 C 200.51 46.77 200.6 47.07 200.77 47.33 C 200.93 47.57 201.14 47.78 201.39 47.93 C 201.57 48.03 201.75 48.12 201.94 48.2 C 202.4 48.38 202.86 48.56 203.33 48.72 C 204.33 49.07 205.31 49.48 206.26 49.96 C 207.25 50.45 208.2 51.01 209.13 51.62 C 209.53 51.89 209.9 52.2 210.23 52.56 C 210.52 52.86 210.76 53.19 210.95 53.56 C 211.15 53.92 211.29 54.31 211.39 54.72 C 211.5 55.21 211.56 55.7 211.56 56.2 C 211.56 56.82 211.5 57.43 211.38 58.03 C 211.29 58.52 211.14 59 210.94 59.45 C 210.75 59.87 210.52 60.27 210.24 60.63 C 209.96 61.02 209.63 61.36 209.27 61.67 C 208.89 61.99 208.48 62.27 208.04 62.49 C 207.5 62.77 206.92 62.99 206.33 63.16 C 205.73 63.33 205.11 63.46 204.48 63.53 C 203.65 63.64 202.82 63.69 201.98 63.69 C 201.87 63.69 201.75 63.68 201.64 63.67 C 201.47 63.66 201.3 63.65 201.14 63.63 C 200.65 63.58 200.17 63.5 199.7 63.41 C 198.83 63.23 197.97 63.04 197.12 62.83 C 196.02 62.55 194.94 62.17 193.91 61.7 C 193.37 61.45 192.85 61.16 192.37 60.83 L 194.34 56 C 194.55 56.1 194.76 56.19 194.97 56.28 C 195.7 56.58 196.43 56.86 197.18 57.12 C 197.93 57.39 198.71 57.6 199.49 57.77 C 200 57.88 200.52 57.94 201.04 57.94 C 201.39 57.94 201.74 57.89 202.09 57.81 C 202.38 57.73 202.66 57.6 202.9 57.42 C 203.11 57.26 203.3 57.07 203.45 56.86 C 203.62 56.62 203.72 56.34 203.72 56.05 C 203.72 55.74 203.63 55.45 203.46 55.19 C 203.31 54.94 203.1 54.73 202.86 54.57 C 202.67 54.43 202.46 54.32 202.24 54.23 C 201.85 54.07 201.45 53.92 201.04 53.79 C 200.04 53.44 199.07 53.03 198.12 52.56 C 197.1 52.06 196.12 51.5 195.17 50.89 C 194.75 50.62 194.36 50.3 194.02 49.94 C 193.73 49.64 193.48 49.3 193.28 48.94 C 193.09 48.57 192.94 48.18 192.84 47.78 C 192.73 47.3 192.67 46.8 192.67 46.31 C 192.67 45.72 192.73 45.13 192.85 44.55 C 192.96 44.06 193.12 43.6 193.34 43.15 C 193.54 42.73 193.8 42.33 194.11 41.96 C 194.45 41.56 194.83 41.19 195.26 40.88 C 195.68 40.56 196.13 40.28 196.6 40.05 C 197.16 39.79 197.74 39.57 198.33 39.4 C 198.98 39.21 199.65 39.07 200.33 38.99 C 201.19 38.88 202.06 38.83 202.93 38.83 C 203.39 38.83 203.85 38.87 204.31 38.94 C 205.27 39.11 206.21 39.31 207.15 39.55 C 208.04 39.79 208.91 40.11 209.74 40.51 C 210.28 40.77 210.79 41.08 211.29 41.42 L 209.32 46.25 C 209.11 46.15 208.91 46.06 208.7 45.97 C 208.14 45.72 207.57 45.48 206.99 45.27 C 206.39 45.04 205.77 44.86 205.14 44.73 C 204.64 44.63 204.12 44.58 203.61 44.58 C 203.17 44.58 202.73 44.62 202.3 44.7 C 201.99 44.76 201.69 44.88 201.43 45.06 C 201.2 45.21 200.99 45.4 200.82 45.61 C 200.62 45.85 200.51 46.15 200.51 46.47 Z " fill="rgb(255,255,255)"/><path d=" M 280.23 39.77 L 281.92 41.64 C 282.08 41.81 282.28 41.92 282.51 41.96 C 282.74 41.99 282.97 41.95 283.17 41.83 C 283.68 41.53 284.21 41.25 284.75 41 C 285.6 40.59 286.46 40.21 287.34 39.85 C 288.15 39.52 289 39.26 289.87 39.1 C 290.84 38.92 291.83 38.83 292.82 38.83 C 293.67 38.83 294.52 38.9 295.36 39.04 C 295.97 39.14 296.56 39.3 297.14 39.53 C 297.67 39.75 298.17 40.03 298.63 40.37 C 299.04 40.68 299.41 41.04 299.72 41.45 C 300.05 41.87 300.34 42.33 300.59 42.81 C 300.85 43.31 301.07 43.83 301.24 44.37 C 301.43 44.96 301.57 45.57 301.66 46.19 C 301.77 46.92 301.82 47.66 301.82 48.4 L 301.82 63.11 L 294.29 63.11 L 294.29 48.61 C 294.29 48.3 294.26 47.98 294.21 47.68 C 294.16 47.4 294.08 47.13 293.97 46.87 C 293.86 46.63 293.74 46.4 293.58 46.19 C 293.43 45.98 293.26 45.78 293.06 45.61 C 292.68 45.28 292.24 45.02 291.77 44.85 C 291.26 44.67 290.74 44.58 290.2 44.58 C 289.84 44.58 289.48 44.61 289.12 44.69 C 288.61 44.79 288.11 44.93 287.62 45.1 C 287.16 45.26 286.69 45.44 286.23 45.62 C 285.83 45.78 285.42 45.95 285.02 46.13 C 284.67 46.29 284.44 46.65 284.44 47.04 L 284.44 63.11 L 276.91 63.11 L 276.91 39.77 L 280.23 39.77 Z " fill="rgb(255,255,255)"/><path d=" M 309.41 45.2 L 308.76 39.72 L 326.98 39.72 L 327.34 43.7 L 316.6 57.62 L 327.53 57.62 L 328.19 63.11 L 308.43 63.11 L 307.56 59.41 L 316.61 47.25 L 319.68 45.2 L 309.41 45.2 Z " fill="rgb(255,255,255)"/><path d=" M 371.3 63.11 L 363.77 63.11 L 363.77 39.77 L 367.09 39.77 L 369.09 42 C 369.25 42.18 369.47 42.3 369.71 42.33 C 369.95 42.36 370.19 42.3 370.39 42.17 C 370.88 41.84 371.38 41.55 371.9 41.29 C 372.55 40.97 373.22 40.69 373.9 40.44 C 374.55 40.2 375.23 40.02 375.91 39.89 C 376.3 39.82 376.69 39.77 377.07 39.74 L 378.51 45.42 C 378.27 45.44 378.02 45.46 377.78 45.5 C 377.06 45.59 376.35 45.73 375.65 45.92 C 374.93 46.11 374.24 46.37 373.57 46.7 C 372.9 47.03 372.27 47.42 371.68 47.87 C 371.44 48.06 371.3 48.36 371.3 48.66 L 371.3 63.11 Z " fill="rgb(255,255,255)"/><path d=" M 76 66.695 L 76 71.715 L 52.02 89.875 L 24.76 71.855 L 24.76 66.695 L 24.76 66.695 L 24.76 19.065 L 24.76 12.065 L 24.76 12.065 L 76 12.065 L 76 19.065 L 76 66.695 Z  M 69 19.065 L 31.76 19.065 L 31.76 19.065 L 31.76 19.065 L 31.76 66.695 L 31.76 68.095 L 51.75 81.295 L 69 68.235 L 69 66.695 L 69 53.972 L 51.93 67.315 L 31.76 53.555 L 31.76 53.555 L 31.76 45.086 L 31.92 45.195 L 51.65 58.655 L 68.69 45.325 L 68.69 45.325 L 69 45.084 L 69 32.872 L 51.93 46.215 L 31.76 32.454 L 31.76 32.454 L 31.76 23.986 L 31.92 24.095 L 51.65 37.555 L 68.69 24.225 L 68.69 24.225 L 69 23.984 L 69 19.065 Z " fill-rule="evenodd" fill="rgb(255,213,0)"/></g></svg>